<?xml version="1.0" encoding="utf-8"?>
<!-- Generator: Adobe Illustrator 19.2.1, SVG Export Plug-In . SVG Version: 6.00 Build 0)  -->
<svg version="1.1" id="Layer_1" xmlns="http://www.w3.org/2000/svg" xmlns:xlink="http://www.w3.org/1999/xlink" x="0px" y="0px"
	 viewBox="0 0 371 99" style="enable-background:new 0 0 371 99;" xml:space="preserve">
<style type="text/css">
	.st0{enable-background:new    ;}
	.st1{fill:#FFFFFF;}
</style>
<title>wec_logo</title>
<g class="st0">
	<path class="st1" d="M20.5,87.1c-0.3,0.4-0.6,0.7-0.9,1.1c-0.4,0.3-0.8,0.6-1.3,0.9c-0.5,0.2-1,0.4-1.5,0.6
		c-0.6,0.1-1.1,0.2-1.8,0.2c-1.1,0-2.1-0.2-3.1-0.6c-0.9-0.4-1.8-0.9-2.5-1.6c-0.7-0.7-1.2-1.5-1.6-2.5c-0.4-1-0.6-2-0.6-3.1
		c0-1.1,0.2-2.2,0.6-3.1c0.4-1,0.9-1.8,1.6-2.5c0.7-0.7,1.5-1.2,2.5-1.6c0.9-0.4,2-0.6,3.1-0.6c0.9,0,1.8,0.2,2.8,0.5
		c0.9,0.4,1.7,1,2.4,1.8l-1.3,1c-0.2-0.2-0.4-0.5-0.6-0.7c-0.3-0.2-0.6-0.4-0.9-0.6c-0.3-0.2-0.7-0.3-1.1-0.4
		c-0.4-0.1-0.8-0.2-1.2-0.2c-1,0-1.8,0.2-2.6,0.5c-0.8,0.3-1.4,0.8-1.9,1.4s-0.9,1.3-1.2,2C9,80.3,8.9,81.2,8.9,82
		c0,0.9,0.1,1.7,0.4,2.4c0.3,0.8,0.7,1.5,1.2,2c0.5,0.6,1.2,1.1,1.9,1.4c0.8,0.4,1.6,0.5,2.6,0.5c0.4,0,0.8,0,1.2-0.1
		c0.4-0.1,0.8-0.2,1.1-0.4c0.4-0.2,0.7-0.4,1-0.7c0.3-0.3,0.6-0.6,0.9-1.1L20.5,87.1z"/>
</g>
<g class="st0">
	<path class="st1" d="M62.8,82c0,1.1-0.2,2.2-0.6,3.1c-0.4,1-0.9,1.8-1.6,2.5c-0.7,0.7-1.5,1.2-2.5,1.6s-2,0.6-3.1,0.6
		s-2.1-0.2-3.1-0.6c-0.9-0.4-1.8-0.9-2.5-1.6c-0.7-0.7-1.2-1.5-1.6-2.5c-0.4-1-0.6-2-0.6-3.1c0-1.1,0.2-2.2,0.6-3.1
		c0.4-1,0.9-1.8,1.6-2.5c0.7-0.7,1.5-1.2,2.5-1.6c0.9-0.4,2-0.6,3.1-0.6s2.1,0.2,3.1,0.6c0.9,0.4,1.8,0.9,2.5,1.6
		c0.7,0.7,1.2,1.5,1.6,2.5C62.6,79.8,62.8,80.9,62.8,82z M61.2,82c0-0.9-0.1-1.7-0.4-2.4c-0.3-0.8-0.7-1.5-1.2-2
		c-0.5-0.6-1.2-1.1-1.9-1.4c-0.8-0.3-1.6-0.5-2.6-0.5s-1.8,0.2-2.6,0.5c-0.8,0.3-1.4,0.8-1.9,1.4s-0.9,1.3-1.2,2
		c-0.3,0.8-0.4,1.6-0.4,2.4c0,0.9,0.1,1.7,0.4,2.4c0.3,0.8,0.7,1.5,1.2,2c0.5,0.6,1.2,1.1,1.9,1.4c0.8,0.4,1.6,0.5,2.6,0.5
		s1.8-0.2,2.6-0.5c0.8-0.3,1.4-0.8,1.9-1.4c0.5-0.6,0.9-1.3,1.2-2C61,83.7,61.2,82.9,61.2,82z"/>
</g>
<g class="st0">
	<path class="st1" d="M93.4,88.1h6.9v1.4h-8.4V74.6h1.5V88.1z"/>
	<path class="st1" d="M128.9,88.1h6.9v1.4h-8.4V74.6h1.5V88.1z"/>
</g>
<g class="st0">
	<path class="st1" d="M167.8,88.1h8v1.4h-9.5V74.6h9.2V76h-7.7V81h7.2v1.4h-7.2V88.1z"/>
</g>
<g class="st0">
	<path class="st1" d="M217.8,87.1c-0.3,0.4-0.6,0.7-0.9,1.1c-0.4,0.3-0.8,0.6-1.3,0.9c-0.5,0.2-1,0.4-1.5,0.6s-1.1,0.2-1.8,0.2
		c-1.1,0-2.1-0.2-3.1-0.6s-1.8-0.9-2.5-1.6c-0.7-0.7-1.2-1.5-1.6-2.5c-0.4-1-0.6-2-0.6-3.1c0-1.1,0.2-2.2,0.6-3.1
		c0.4-1,0.9-1.8,1.6-2.5c0.7-0.7,1.5-1.2,2.5-1.6c0.9-0.4,2-0.6,3.1-0.6c0.9,0,1.8,0.2,2.8,0.5c0.9,0.4,1.7,1,2.4,1.8l-1.3,1
		c-0.2-0.2-0.4-0.5-0.6-0.7s-0.6-0.4-0.9-0.6c-0.3-0.2-0.7-0.3-1.1-0.4c-0.4-0.1-0.8-0.2-1.2-0.2c-1,0-1.8,0.2-2.6,0.5
		s-1.4,0.8-1.9,1.4c-0.5,0.6-0.9,1.3-1.2,2c-0.3,0.8-0.4,1.6-0.4,2.4c0,0.9,0.1,1.7,0.4,2.4c0.3,0.8,0.7,1.5,1.2,2
		c0.5,0.6,1.2,1.1,1.9,1.4c0.8,0.4,1.6,0.5,2.6,0.5c0.4,0,0.8,0,1.2-0.1c0.4-0.1,0.8-0.2,1.1-0.4s0.7-0.4,1-0.7s0.6-0.6,0.9-1.1
		L217.8,87.1z"/>
</g>
<g class="st0">
	<path class="st1" d="M251.2,89.5h-1.5V76h-5v-1.4h11.5V76h-5V89.5z"/>
</g>
<g class="st0">
	<path class="st1" d="M286.1,89.5h-1.5V74.6h1.5V89.5z"/>
</g>
<g class="st0">
	<path class="st1" d="M321.3,87.2L321.3,87.2l4.9-12.6h1.6L322,89.5h-1.5l-5.6-14.9h1.7L321.3,87.2z"/>
</g>
<g class="st0">
	<path class="st1" d="M359.3,88.1h8v1.4h-9.5V74.6h9.2V76h-7.7V81h7.2v1.4h-7.2V88.1z"/>
</g>
<g id="Title">
	<g class="st0">
		<path class="st1" d="M71.9,5l-7.4,23.8l4.6,4.4l-7,3.4l-7.3,23.2h-9.2l-9.5-40.4l-9.5,40.4h-9.2l-7.3-23.2l-7-3.4l4.6-4.4L0.3,5
			h9.1L22,48.7L31.6,5h9.1l9.5,43.8L62.7,5H71.9z"/>
		<path class="st1" d="M124.6,32.6l-4.6,4v14.1l-10.2,9.1H90.3L80,50.7V36.5l-4.6-4l4.6-4V14.1L90.3,5h19.4l10.2,9.1v14.4
			L124.6,32.6z M112,46.9v-29l-5.7-4.9H93.7L88,17.9v29l5.7,4.9h12.6L112,46.9z"/>
		<path class="st1" d="M180.1,32.6l-4.6,4v14.1l-10.2,9.1h-19.4l-10.3-9.1V36.5l-4.6-4l4.6-4V14.1L145.8,5h19.4l10.2,9.1v14.4
			L180.1,32.6z M167.5,46.9v-29l-5.7-4.9h-12.6l-5.7,4.9v29l5.7,4.9h12.6L167.5,46.9z"/>
		<path class="st1" d="M230.7,50.6l-10.3,9.1h-28.6V36.5l-4.6-4l4.6-4V5h28.6l10.3,9.1V50.6z M222.6,46.9V17.9l-5.8-4.9h-17.1v38.7
			h17.1L222.6,46.9z"/>
		<path class="st1" d="M276.5,59.7h-33.1V36.5l-4.6-4l4.6-4V5h33.1v8h-25.1v15.6h19.4v8h-19.4v15.2h25.1V59.7z"/>
		<path class="st1" d="M323.2,59.8h-33.1V36.5l-4.6-4l4.6-4V5h8v46.8h25.1V59.8z"/>
		<path class="st1" d="M370.1,13h-24.5v15.6H365v8h-19.4v23.3h-8V36.5l-4.6-4l4.6-4V5h32.5V13z"/>
	</g>
</g>
</svg>
